<svg xmlns="http://www.w3.org/2000/svg" version="1.1" xmlns:xlink="http://www.w3.org/1999/xlink" xmlns:svgjs="http://svgjs.dev/svgjs" width="1500" height="1500" viewBox="0 0 1500 1500"><g transform="matrix(1,0,0,1,-0.7499999999998863,-0.7499999999998863)"><svg viewBox="0 0 280 280" data-background-color="#ffffff" preserveAspectRatio="xMidYMid meet" height="1500" width="1500" xmlns="http://www.w3.org/2000/svg" xmlns:xlink="http://www.w3.org/1999/xlink"><g id="tight-bounds" transform="matrix(1,0,0,1,0.13999999999998636,0.13999999999998636)"><svg viewBox="0 0 279.72 279.72" height="279.72" width="279.72"><g><svg viewBox="0 0 279.72 279.72" height="279.72" width="279.72"><g><svg viewBox="0 0 279.72 279.72" height="279.72" width="279.72"><g id="textblocktransform"><svg viewBox="0 0 279.72 279.72" height="279.72" width="279.72" id="textblock"><g><svg viewBox="0 0 279.72 279.72" height="279.72" width="279.72"><g transform="matrix(1,0,0,1,73.92936372216631,79.3515568430881)"><svg viewBox="0 0 131.8612725556674 121.0168863138238" height="121.0168863138238" width="131.8612725556674"><g><svg version="1.1" xmlns="http://www.w3.org/2000/svg" xmlns:xlink="http://www.w3.org/1999/xlink" x="0" y="0" viewBox="0.14570337834961225 4.1899999999999995 99.99900557195222 91.775" enable-background="new 0.146 4.189 100 91.775" xml:space="preserve" width="131.8612725556674" height="121.0168863138238" class="icon-xg-0" data-fill-palette-color="accent" id="xg-0"><g fill="#fc8019" data-fill-palette-color="accent"><path d="M99.511 38.569L50.993 4.606c-0.513-0.359-1.195-0.359-1.708 0L0.779 38.569c-0.323 0.228-0.542 0.573-0.611 0.961-0.068 0.389 0.021 0.789 0.247 1.112l6.606 9.434c0.291 0.415 0.751 0.635 1.222 0.635 0.294 0 0.592-0.086 0.852-0.269l41.051-28.748 41.049 28.748c0.678 0.472 1.604 0.307 2.074-0.366l6.607-9.434c0.225-0.323 0.315-0.724 0.246-1.112C100.055 39.143 99.835 38.797 99.511 38.569z" fill="#fc8019" data-fill-palette-color="accent"></path><path d="M87.456 53.667l-36.457-25.53c-0.512-0.358-1.195-0.358-1.707 0L12.641 53.803c-0.398 0.277-0.635 0.733-0.635 1.22v39.454c0 0.82 0.667 1.488 1.49 1.488h25.502c0.822 0 1.489-0.668 1.489-1.488V60.095h19.32v34.382c0 0.82 0.666 1.488 1.489 1.488h25.309c0.823 0 1.486-0.668 1.486-1.488V54.886C88.09 54.4 87.855 53.946 87.456 53.667z" fill="#fc8019" data-fill-palette-color="accent"></path><path d="M74.213 15.768l11.411 7.99c0.256 0.178 0.554 0.269 0.854 0.269 0.236 0 0.474-0.056 0.688-0.167 0.49-0.256 0.801-0.766 0.801-1.321V5.678c0-0.822-0.667-1.488-1.489-1.488H75.065c-0.822 0-1.488 0.667-1.488 1.488v8.871C73.576 15.033 73.812 15.489 74.213 15.768z" fill="#fc8019" data-fill-palette-color="accent"></path></g></svg></g></svg></g><g><path d="M136.47 28.13l-10.022 0.124-0.03-2.415 3.118-0.578-0.272-21.989-3.131-0.501-0.03-2.435 10.022-0.124 0.03 2.435-3.118 0.578 0.119 9.642 13.346-0.165-0.119-9.642-3.131-0.5-0.03-2.436 3.124-0.039 3.783-0.046 3.124-0.039 0.03 2.436-3.117 0.577 0.271 21.99 3.131 0.5 0.03 2.415-10.031 0.124-0.03-2.415 3.117-0.578-0.115-9.372-13.346 0.165 0.116 9.372 3.131 0.501z" fill="#fc8019" data-fill-palette-color="primary"></path><path d="M12.756 190.612l-3.575-9.363 2.256-0.862 1.619 2.727 20.544-7.846-0.612-3.112 2.276-0.869 3.575 9.363-2.275 0.869-1.618-2.726-9.009 3.44 4.762 12.468 9.009-3.44-0.612-3.112 2.276-0.869 1.114 2.919 1.35 3.535 1.115 2.918-2.275 0.869-1.619-2.726-20.543 7.846 0.611 3.111-2.257 0.862-3.579-9.372 2.256-0.862 1.619 2.727 8.756-3.345-4.761-12.468-8.757 3.345 0.611 3.111z" fill="#fc8019" data-fill-palette-color="secondary"></path><path d="M45.939 242.681v0c-1.578-1.479-2.418-2.986-2.52-4.523-0.097-1.541 0.509-3.011 1.82-4.409v0c0.901-0.962 1.948-1.553 3.142-1.776 1.198-0.218 2.479-0.057 3.843 0.482 1.373 0.539 2.755 1.459 4.143 2.761v0l2.703 2.532 1.386-1.479c0.86-0.918 1.248-1.886 1.162-2.905-0.085-1.028-0.63-2.013-1.636-2.955v0c-0.636-0.596-1.258-1.037-1.865-1.324-0.612-0.281-1.237-0.466-1.875-0.553v0l-2.271 1.839-2.127-1.993 3.249-3.467c1.199 0.083 2.384 0.41 3.556 0.979 1.172 0.56 2.309 1.356 3.411 2.389v0c1.836 1.72 2.864 3.509 3.084 5.366 0.225 1.852-0.427 3.594-1.955 5.226v0l-6.833 7.292c-0.187 0.199-0.364 0.393-0.532 0.582-0.168 0.189-0.331 0.387-0.489 0.595v0l1.328 1.532-1.652 1.763-3.962-3.713c0.304-0.49 0.584-0.921 0.841-1.292 0.261-0.366 0.534-0.721 0.82-1.065v0c-1.171 0.179-2.367 0.122-3.587-0.173-1.22-0.295-2.281-0.865-3.184-1.711zM48.503 240.747v0c0.913 0.855 1.953 1.42 3.12 1.693 1.167 0.273 2.202 0.253 3.106-0.059v0l2.573-2.746-2.797-2.621c-1.272-1.192-2.509-1.781-3.709-1.765-1.205 0.011-2.158 0.39-2.858 1.138v0c-0.619 0.66-0.886 1.359-0.801 2.095 0.08 0.732 0.536 1.487 1.366 2.265z" fill="#fc8019" data-fill-palette-color="secondary"></path><path d="M96.558 273.08v0c-2.14-0.714-3.581-1.957-4.323-3.726-0.742-1.77-0.629-4.104 0.338-7.002v0l2.934-8.787-2.083-1.263 0.771-2.311 2.254 0.753 3.588 1.198-3.888 11.646c-0.7 2.096-0.872 3.641-0.517 4.637 0.349 0.993 1.18 1.709 2.493 2.148v0c1.275 0.426 2.413 0.518 3.412 0.276 1.004-0.233 1.875-0.753 2.615-1.558v0l3.796-11.372-2.461-1.39 0.771-2.31 2.632 0.878 3.589 1.198-5.636 16.883 2.083 1.264-0.765 2.291-5.483-1.83 0.743-2.983c-0.971 0.848-2.04 1.392-3.208 1.634-1.168 0.241-2.387 0.15-3.655-0.274z" fill="#fc8019" data-fill-palette-color="secondary"></path><path d="M154.107 279.638v0c-1.392 0.127-2.703 0.106-3.935-0.062-1.238-0.168-2.563-0.485-3.975-0.951v0l-0.487-4.897 2.843-0.259 0.976 2.898c0.742 0.226 1.454 0.375 2.136 0.447 0.675 0.072 1.403 0.073 2.185 0.001v0c1.524-0.139 2.591-0.53 3.201-1.174 0.609-0.65 0.874-1.406 0.795-2.268v0c-0.074-0.815-0.472-1.477-1.193-1.986-0.721-0.502-1.977-0.872-3.77-1.11v0c-2.544-0.343-4.449-0.941-5.717-1.794-1.267-0.853-1.974-2.082-2.12-3.686v0c-0.102-1.12 0.131-2.154 0.7-3.101 0.569-0.941 1.41-1.726 2.522-2.355 1.112-0.629 2.437-1.014 3.974-1.154v0c1.564-0.143 2.922-0.086 4.075 0.17 1.146 0.256 2.157 0.645 3.033 1.167v0l0.629 4.694-2.833 0.258-0.857-2.688c-0.474-0.291-1.028-0.498-1.66-0.621-0.626-0.123-1.333-0.149-2.122-0.077v0c-1.173 0.107-2.099 0.469-2.778 1.085-0.679 0.61-0.981 1.329-0.906 2.158v0c0.044 0.484 0.185 0.895 0.423 1.234 0.245 0.339 0.678 0.623 1.301 0.854 0.622 0.231 1.526 0.432 2.711 0.605v0c2.938 0.414 5.025 1.092 6.26 2.035 1.235 0.937 1.922 2.17 2.062 3.701v0c0.159 1.743-0.354 3.263-1.539 4.561-1.185 1.291-3.163 2.063-5.934 2.315z" fill="#fc8019" data-fill-palette-color="secondary"></path><path d="M207.005 262.548l-8.936 4.538-1.094-2.154 2.542-1.895-6.712-13.217-3.03 0.934-1.103-2.172 6.15-3.123 8.059 15.869 3.03-0.934zM192.508 240.902l-3.534 1.794-1.835-3.613 3.534-1.795z" fill="#fc8019" data-fill-palette-color="secondary"></path><path d="M243.455 232.268l-7.094 7.702-1.777-1.636 1.727-2.671-11.028-10.158-2.198 2.386-2.063-1.9 2.198-2.386-1.931-1.779c-1.625-1.497-2.493-3.079-2.604-4.746-0.101-1.668 0.551-3.265 1.958-4.793v0c0.293-0.318 0.635-0.641 1.027-0.967 0.397-0.322 0.822-0.637 1.275-0.943v0l1.804 2.286c-0.188 0.135-0.429 0.333-0.725 0.594-0.295 0.262-0.558 0.517-0.788 0.768v0c-0.757 0.822-1.074 1.652-0.95 2.49 0.119 0.843 0.639 1.688 1.559 2.536v0l1.931 1.778 3.064-3.326 2.063 1.901-3.063 3.326 11.028 10.158 2.811-2.256z" fill="#fc8019" data-fill-palette-color="secondary"></path><path d="M273.265 198.434v0c-0.103 0.281-0.267 0.632-0.492 1.053-0.231 0.418-0.418 0.736-0.561 0.953v0l-2.663-1.379c0.101-0.197 0.227-0.473 0.378-0.829 0.149-0.349 0.248-0.59 0.296-0.721v0c0.277-0.756 0.212-1.478-0.196-2.166-0.401-0.685-1.024-1.413-1.868-2.183v0l-1.74-1.605-19.043 0.849-1.056 1.984-2.287-0.838 2.993-8.173 2.287 0.838-0.496 2.486 11.13-0.229 2.876 0.012 0.038-0.103-10.628-9.006-1.275 2.35-2.287-0.838 2.932-8.005 2.287 0.838-0.448 2.122 17.092 14.956c0.805 0.706 1.483 1.447 2.034 2.223 0.55 0.782 0.899 1.619 1.048 2.51 0.149 0.891 0.032 1.858-0.351 2.901z" fill="#fc8019" data-fill-palette-color="secondary"></path><path d="M3.54 143.42c0-5.89 4.775-10.666 10.666-10.666 5.89 0 10.666 4.775 10.666 10.666 0 5.89-4.775 10.666-10.666 10.665-5.89 0-10.666-4.775-10.666-10.665z" fill="#fc8019" data-fill-palette-color="primary"></path><path d="M254.848 143.42c0-5.89 4.775-10.666 10.666-10.666 5.89 0 10.666 4.775 10.666 10.666 0 5.89-4.775 10.666-10.666 10.665-5.89 0-10.666-4.775-10.666-10.665z" fill="#fc8019" data-fill-palette-color="primary"></path></g></svg></g></svg></g></svg></g><g></g></svg></g><defs></defs></svg><rect width="279.72" height="279.72" fill="none" stroke="none" visibility="hidden"></rect></g></svg></g></svg>